HIERARCHY
ROOT Hips
{
	OFFSET 0.000000 0.000000 0.000000
	CHANNELS 6 Xposition Yposition Zposition Zrotation Yrotation Xrotation 
	JOINT LHipJoint
	{
		OFFSET 0.000000 0.000000 0.000000
		CHANNELS 3 Zrotation Yrotation Xrotation
		JOINT LeftUpLeg
		{
			OFFSET 1.363060 -1.794630 0.839290
			CHANNELS 3 Zrotation Yrotation Xrotation
			JOINT LeftLeg
			{
				OFFSET 2.448110 -6.726130 0.000000
				CHANNELS 3 Zrotation Yrotation Xrotation
				JOINT LeftFoot
				{
					OFFSET 2.562200 -7.039590 0.000000
					CHANNELS 3 Zrotation Yrotation Xrotation
					JOINT LeftToeBase
					{
						OFFSET 0.157640 -0.433110 2.322550
						CHANNELS 3 Zrotation Yrotation Xrotation
						End Site
						{
							OFFSET 0.000000 0.000000 0.000000
						}
					}
				}
			}
		}
	}
	JOINT RHipJoint
	{
		OFFSET 0.000000 0.000000 0.000000
		CHANNELS 3 Zrotation Yrotation Xrotation
		JOINT RightUpLeg
		{
			OFFSET -1.305520 -1.794630 0.839290
			CHANNELS 3 Zrotation Yrotation Xrotation
			JOINT RightLeg
			{
				OFFSET -2.542530 -6.985550 0.000000
				CHANNELS 3 Zrotation Yrotation Xrotation
				JOINT RightFoot
				{
					OFFSET -2.568260 -7.056230 0.000000
					CHANNELS 3 Zrotation Yrotation Xrotation
					JOINT RightToeBase
					{
						OFFSET -0.164730 -0.452590 2.363150
						CHANNELS 3 Zrotation Yrotation Xrotation
						End Site
						{
							OFFSET 0.000000 0.000000 0.000000
						}
					}
				}
			}
		}
	}
	JOINT LowerBack
	{
		OFFSET 0.000000 0.000000 0.000000
		CHANNELS 3 Zrotation Yrotation Xrotation
		JOINT Spine
		{
			OFFSET 0.028270 2.035590 -0.193380
			CHANNELS 3 Zrotation Yrotation Xrotation
			JOINT Spine1
			{
				OFFSET 0.056720 2.048850 -0.042750
				CHANNELS 3 Zrotation Yrotation Xrotation
				JOINT Neck
				{
					OFFSET 0.000000 0.000000 0.000000
					CHANNELS 3 Zrotation Yrotation Xrotation
					JOINT Neck1
					{
						OFFSET -0.054170 1.746240 0.172020
						CHANNELS 3 Zrotation Yrotation Xrotation
						JOINT Head
						{
							OFFSET 0.104070 1.761360 -0.123970
							CHANNELS 3 Zrotation Yrotation Xrotation
							End Site
							{
								OFFSET 0.000000 0.000000 0.000000
							}
						}
					}
				}
				JOINT LeftShoulder
				{
					OFFSET 0.000000 0.000000 0.000000
					CHANNELS 3 Zrotation Yrotation Xrotation
					JOINT LeftArm
					{
						OFFSET 3.362410 1.200890 -0.311210
						CHANNELS 3 Zrotation Yrotation Xrotation
						JOINT LeftForeArm
						{
							OFFSET 4.983000 -0.000000 -0.000000
							CHANNELS 3 Zrotation Yrotation Xrotation
							JOINT LeftHand
							{
								OFFSET 3.483560 -0.000000 -0.000000
								CHANNELS 3 Zrotation Yrotation Xrotation
								JOINT LeftFingerBase
								{
									OFFSET 0.000000 0.000000 0.000000
									CHANNELS 3 Zrotation Yrotation Xrotation
									JOINT LeftHandIndex1
									{
										OFFSET 0.715260 -0.000000 -0.000000
										CHANNELS 3 Zrotation Yrotation Xrotation
										End Site
										{
											OFFSET 0.000000 0.000000 0.000000
										}
									}
								}
								JOINT LThumb
								{
									OFFSET 0.000000 0.000000 0.000000
									CHANNELS 3 Zrotation Yrotation Xrotation
									End Site
									{
										OFFSET 0.000000 0.000000 0.000000
									}
								}
							}
						}
					}
				}
				JOINT RightShoulder
				{
					OFFSET 0.000000 0.000000 0.000000
					CHANNELS 3 Zrotation Yrotation Xrotation
					JOINT RightArm
					{
						OFFSET -3.136600 1.374050 -0.404650
						CHANNELS 3 Zrotation Yrotation Xrotation
						JOINT RightForeArm
						{
							OFFSET -5.241900 -0.000000 -0.000000
							CHANNELS 3 Zrotation Yrotation Xrotation
							JOINT RightHand
							{
								OFFSET -3.444170 -0.000000 -0.000000
								CHANNELS 3 Zrotation Yrotation Xrotation
								JOINT RightFingerBase
								{
									OFFSET 0.000000 0.000000 0.000000
									CHANNELS 3 Zrotation Yrotation Xrotation
									JOINT RightHandIndex1
									{
										OFFSET -0.622530 -0.000000 -0.000000
										CHANNELS 3 Zrotation Yrotation Xrotation
										End Site
										{
											OFFSET 0.000000 0.000000 0.000000
										}
									}
								}
								JOINT RThumb
								{
									OFFSET 0.000000 0.000000 0.000000
									CHANNELS 3 Zrotation Yrotation Xrotation
									End Site
									{
										OFFSET 0.000000 0.000000 0.000000
									}
								}
							}
						}
					}
				}
			}
		}
	}
}
MOTION
Frames: 13
Frame Time: 0.016667
-0.017001 17.198744 0.047707 -0.702841 -3.152266 10.532088 -4.564961 16.856877 -3.223632 -19.726273 -9.783037 -20.215582 -2.162366 -0.593387 0.379598 -0.231362 4.713779 14.719582 0.000000 0.000000 0.000000 2.884335 -21.855004 8.209914 19.417532 9.053869 -7.478025 -6.620990 -7.585227 31.862823 1.567286 7.913505 -23.688982 0.000000 0.000000 0.000000 0.745681 2.828779 2.445343 -2.611031 2.035682 11.659303 2.565267 2.305890 -12.037627 6.343283 -0.896834 2.660451 -2.564814 -0.121934 -1.463043 0.000000 0.000000 0.000000 -4.031579 16.973676 -1.538112 -61.146418 -7.661233 3.277502 -3.983264 27.535835 0.201812 -0.028875 -6.305064 0.100857 -0.030454 -6.306455 0.000000 0.000000 0.000000 0.000000 0.000000 0.000000 0.000000 0.365110 -14.245366 3.593464 59.338350 11.005526 3.075644 18.450673 42.975107 -0.015199 -0.850467 5.295649 -0.007852 -0.857510 5.295389 0.000000 0.000000 0.000000 0.000000 0.000000 0.000000 0.000000 
0.002379 17.235650 0.247923 -0.388079 -2.940619 11.355190 -5.015343 17.603016 -2.425199 -19.625374 -10.438155 -21.233144 -2.796092 -0.722048 0.549097 -0.273271 4.376174 14.227404 0.000000 0.000000 0.000000 3.540669 -22.511350 9.473413 17.946288 10.123860 -9.681652 -6.501902 -7.659457 32.258002 1.540169 7.366423 -21.871115 0.000000 0.000000 0.000000 0.802399 2.919542 1.147242 -3.405077 1.977796 11.589926 2.521465 2.061631 -11.203883 6.653455 -0.896338 3.175048 -2.496453 -0.102505 -1.589928 0.000000 0.000000 0.000000 -4.953700 16.340559 -1.344334 -59.018354 -6.701450 3.542981 -5.663285 26.794943 0.164065 0.086742 -5.475979 0.081994 0.085947 -5.477019 0.000000 0.000000 0.000000 0.000000 0.000000 0.000000 0.000000 0.885747 -13.771663 3.221549 59.106634 11.184321 1.775715 15.106906 39.814984 -0.009335 -0.990011 5.510086 -0.004904 -0.996584 5.509621 0.000000 0.000000 0.000000 0.000000 0.000000 0.000000 0.000000 
0.078865 17.274376 0.447779 -0.171397 -2.997604 12.095203 -6.164716 18.264838 -1.427279 -18.845662 -11.047465 -22.634335 -3.251932 -0.762131 0.679003 -0.384219 3.968839 13.251786 0.000000 0.000000 0.000000 3.408803 -23.177304 10.410525 17.111607 10.990317 -11.171479 -6.246766 -7.556806 32.468298 1.376168 6.749833 -19.307841 0.000000 0.000000 0.000000 2.152083 3.263756 -0.003188 -5.136561 2.037549 11.507980 2.262546 1.792851 -10.406984 6.861244 -0.900732 3.782508 -2.398794 -0.081668 -1.718914 0.000000 0.000000 0.000000 -5.952393 15.663959 -1.110125 -56.958303 -5.686202 3.719888 -7.040726 25.908241 0.137858 0.173207 -4.738908 0.068900 0.172818 -4.739743 0.000000 0.000000 0.000000 0.000000 0.000000 0.000000 0.000000 1.353587 -13.319905 2.773813 58.835981 11.336883 0.732978 11.760382 36.415161 0.001936 -1.121004 5.690200 0.000755 -1.126782 5.689591 0.000000 0.000000 0.000000 0.000000 0.000000 0.000000 0.000000 
0.140652 17.314256 0.588071 0.213923 -2.738470 12.008248 -7.112635 17.570869 -1.582512 -18.176411 -10.818027 -22.601800 -3.240168 -0.206185 1.781840 -0.455828 3.529909 11.676175 0.000000 0.000000 0.000000 3.692779 -22.274146 10.255786 16.021595 11.088602 -11.599587 -6.166178 -8.354091 33.882846 1.760031 4.983654 -16.237386 0.000000 0.000000 0.000000 3.130262 3.336113 0.254865 -6.662779 1.916079 11.478509 1.956032 1.461929 -10.261852 7.156525 -0.915596 3.318220 -2.386124 -0.082193 -1.678843 0.000000 0.000000 0.000000 -6.085015 15.098983 -1.495321 -55.973019 -6.090835 3.151531 -7.795462 26.367062 0.127693 0.254251 -4.952716 0.063807 0.254296 -4.953393 0.000000 0.000000 0.000000 0.000000 0.000000 0.000000 0.000000 0.811579 -13.127194 2.900097 60.300772 11.251313 0.217778 9.225305 33.622680 0.037266 -1.152908 6.491052 0.018397 -1.158240 6.490456 0.000000 0.000000 0.000000 0.000000 0.000000 0.000000 0.000000 
0.203978 17.355098 0.726836 0.559718 -2.524027 11.900462 -8.032938 16.819057 -1.711996 -16.987925 -10.416001 -22.739288 -4.210153 0.661954 2.957420 -0.445422 3.438650 10.179681 0.000000 0.000000 0.000000 3.911371 -21.384353 10.084992 15.030260 11.117365 -11.879810 -6.051381 -9.087036 35.109211 2.131733 3.172320 -13.013175 0.000000 0.000000 0.000000 4.127611 3.420574 0.539915 -8.122434 1.817275 11.410892 1.687456 1.166566 -10.153368 7.331025 -0.918954 2.948592 -2.372768 -0.082947 -1.626284 0.000000 0.000000 0.000000 -6.279483 14.470312 -1.821549 -54.956653 -6.435900 2.578502 -8.595984 26.817212 0.116789 0.339630 -5.177288 0.058343 0.340169 -5.177808 0.000000 0.000000 0.000000 0.000000 0.000000 0.000000 0.000000 0.498634 -12.889679 2.973802 61.554617 11.276990 -0.250767 6.396122 32.058279 0.071635 -1.183257 6.896463 0.035591 -1.187383 6.895976 0.000000 0.000000 0.000000 0.000000 0.000000 0.000000 0.000000 
0.267202 17.385723 0.887743 0.898225 -2.410096 12.088774 -8.604894 16.862702 -1.183744 -16.721616 -10.355217 -22.711758 -4.723322 0.555135 2.460751 -0.488019 3.386408 9.762522 0.000000 0.000000 0.000000 3.874700 -20.917769 9.934527 14.425676 11.400019 -12.366835 -6.180919 -9.584138 36.452017 2.440172 1.401359 -9.464933 0.000000 0.000000 0.000000 4.972684 3.399230 0.345242 -9.213634 1.640674 11.368710 1.486161 0.834833 -10.093975 7.313033 -0.923660 3.595064 -2.271596 -0.068580 -1.784286 0.000000 0.000000 0.000000 -6.711875 14.479339 -1.910153 -54.089384 -6.232612 2.548802 -8.905825 26.131555 0.109458 0.361634 -5.047633 0.054679 0.362227 -5.048098 0.000000 0.000000 0.000000 0.000000 0.000000 0.000000 0.000000 0.699761 -13.270781 2.774757 61.698956 11.241935 -0.425812 5.932453 30.531853 0.083501 -1.075174 6.871608 0.041557 -1.078235 6.871316 0.000000 0.000000 0.000000 0.000000 0.000000 0.000000 0.000000 
0.332040 17.416371 1.047691 1.202082 -2.322233 12.277710 -9.192478 16.886863 -0.633421 -16.364170 -10.274786 -22.702563 -5.280698 0.437300 1.898152 -0.524024 3.381446 9.414868 0.000000 0.000000 0.000000 3.816690 -20.437712 9.750902 13.872067 11.616831 -12.753453 -6.263588 -10.033045 37.612674 2.752053 -0.412138 -5.828345 0.000000 0.000000 0.000000 5.822587 3.382898 0.156295 -10.261079 1.469803 11.290003 1.275202 0.516252 -10.018865 7.282504 -0.930121 4.265013 -2.168299 -0.054227 -1.935012 0.000000 0.000000 0.000000 -7.151113 14.496150 -1.994139 -53.229560 -6.018921 2.526245 -9.196963 25.459001 0.102640 0.381708 -4.914891 0.051271 0.382337 -4.915307 0.000000 0.000000 0.000000 0.000000 0.000000 0.000000 0.000000 0.914540 -13.640561 2.577927 61.796257 11.201914 -0.580626 5.471984 29.021344 0.094248 -0.967052 6.825848 0.046961 -0.969103 6.825735 0.000000 0.000000 0.000000 0.000000 0.000000 0.000000 0.000000 
0.389237 17.444045 1.209426 1.410064 -2.079214 12.431527 -9.891467 16.848442 -0.127711 -15.596650 -10.320033 -23.087104 -5.958802 0.602506 2.149793 -0.530084 3.171496 8.547150 0.000000 0.000000 0.000000 3.893014 -20.086681 9.661346 13.451594 11.880118 -13.132447 -6.562124 -10.385644 38.688495 3.177238 -2.330860 -2.200640 0.000000 0.000000 0.000000 6.624249 3.407541 -0.131037 -11.199989 1.355492 11.135312 0.938186 0.294276 -9.808524 7.142980 -0.894474 4.408696 -1.977355 -0.040253 -1.857390 0.000000 0.000000 0.000000 -7.426149 14.221166 -2.021192 -52.590015 -5.982682 2.521669 -8.971612 24.875579 0.100406 0.369739 -4.884169 0.050154 0.370357 -4.884581 0.000000 0.000000 0.000000 0.000000 0.000000 0.000000 0.000000 0.969129 -13.614227 2.533725 62.129068 11.119470 -0.618844 4.903249 26.720807 0.106917 -0.954452 7.105017 0.053292 -0.956147 7.104969 0.000000 0.000000 0.000000 0.000000 0.000000 0.000000 0.000000 
0.447105 17.471192 1.369684 1.590942 -1.850569 12.583143 -10.614801 16.803674 0.403831 -14.728194 -10.360811 -23.528199 -6.681221 0.783416 2.401306 -0.529807 2.992953 7.715252 0.000000 0.000000 0.000000 3.969873 -19.735001 9.553590 13.044946 12.097309 -13.450591 -6.801900 -10.710655 39.620580 3.631364 -4.318016 1.442382 0.000000 0.000000 0.000000 7.428377 3.440776 -0.415869 -12.108149 1.246782 10.958875 0.591911 0.086793 -9.591681 6.996680 -0.858790 4.559141 -1.786759 -0.027266 -1.766816 0.000000 0.000000 0.000000 -7.701841 13.940491 -2.034598 -51.948044 -5.937430 2.514057 -8.743574 24.299238 0.098219 0.356726 -4.851843 0.049061 0.357331 -4.852251 0.000000 0.000000 0.000000 0.000000 0.000000 0.000000 0.000000 1.025597 -13.564826 2.475859 62.452043 11.053279 -0.627003 4.322586 24.301420 0.119836 -0.943280 7.374346 0.059749 -0.944595 7.374368 0.000000 0.000000 0.000000 0.000000 0.000000 0.000000 0.000000 
0.479117 17.497325 1.517900 1.780980 -1.448996 12.568241 -11.123005 16.543510 0.599730 -14.133861 -10.388131 -23.696173 -6.939691 1.112198 3.329563 -0.523818 2.588755 6.660786 0.000000 0.000000 0.000000 4.385373 -19.153205 9.472641 12.150810 12.178334 -13.860083 -6.629696 -11.378170 40.658848 4.355157 -6.726445 4.934474 0.000000 0.000000 0.000000 7.760419 3.340140 -0.554518 -12.401646 1.104191 11.029583 0.039095 -0.075932 -9.662347 7.048653 -0.828797 4.334601 -1.575951 -0.018646 -1.553842 0.000000 0.000000 0.000000 -8.113876 13.502009 -2.193353 -51.410487 -6.260697 2.301878 -8.066547 24.215407 0.099080 0.277641 -5.090489 0.049486 0.278327 -5.090920 0.000000 0.000000 0.000000 0.000000 0.000000 0.000000 0.000000 0.815415 -13.382193 2.462387 63.075197 11.092140 -0.574282 4.321274 21.464054 0.127174 -0.984127 7.733679 0.063394 -0.985620 7.733672 0.000000 0.000000 0.000000 0.000000 0.000000 0.000000 0.000000 
0.510202 17.522605 1.663924 1.945011 -1.037333 12.551152 -11.618023 16.271906 0.798279 -13.513205 -10.415000 -23.871799 -7.187335 1.441142 4.255402 -0.514860 2.206839 5.664992 0.000000 0.000000 0.000000 4.804012 -18.601576 9.379045 11.279004 12.195845 -14.209430 -6.418121 -12.015840 41.549720 5.115320 -9.233583 8.373578 0.000000 0.000000 0.000000 8.053964 3.285700 -0.672245 -12.734807 0.992830 10.930785 -0.191415 -0.204485 -9.494386 7.078031 -0.815954 4.154315 -1.537640 -0.019508 -1.445604 0.000000 0.000000 0.000000 -8.053004 13.174788 -2.169121 -51.346676 -6.486015 2.260796 -8.128616 23.147641 0.095172 0.275595 -5.109581 0.047531 0.276237 -5.109983 0.000000 0.000000 0.000000 0.000000 0.000000 0.000000 0.000000 0.490380 -13.162868 2.382792 63.550216 11.179182 -0.498478 4.362684 18.512481 0.133134 -1.038333 8.071315 0.066348 -1.040085 8.071254 0.000000 0.000000 0.000000 0.000000 0.000000 0.000000 0.000000 
0.534824 17.547811 1.795081 2.118492 -0.839435 12.493165 -12.012385 15.737103 0.850400 -12.996052 -10.129646 -23.554820 -7.386058 1.629408 4.511452 -0.491615 2.031632 4.942131 0.000000 0.000000 0.000000 5.321314 -17.770627 9.104727 10.312496 11.994547 -14.333508 -6.225640 -12.653383 42.279674 5.794608 -11.672995 11.602873 0.000000 0.000000 0.000000 8.143261 3.145209 -0.499875 -12.799856 0.828320 10.604780 -0.446676 -0.325220 -9.429340 6.811097 -0.756920 4.045760 -1.332188 -0.008457 -1.361021 0.000000 0.000000 0.000000 -7.824119 13.176904 -2.192029 -51.598306 -6.815120 2.209619 -8.066651 21.874011 0.093989 0.270615 -5.189369 0.046939 0.271142 -5.189756 0.000000 0.000000 0.000000 0.000000 0.000000 0.000000 0.000000 0.274065 -13.311873 2.481274 63.829932 11.051662 -0.465979 4.768883 17.629133 0.132640 -1.042526 8.206973 0.066088 -1.044520 8.206881 0.000000 0.000000 0.000000 0.000000 0.000000 0.000000 0.000000 
0.558795 17.572068 1.923941 2.276478 -0.678670 12.432145 -12.403498 15.204225 0.907694 -12.463093 -9.826829 -23.229124 -7.594240 1.812705 4.720483 -0.467415 1.882459 4.258110 0.000000 0.000000 0.000000 5.821483 -16.968140 8.820136 9.381544 11.746033 -14.392496 -6.040648 -13.241526 42.894371 6.450306 -14.149995 14.741063 0.000000 0.000000 0.000000 8.234438 3.012217 -0.314779 -12.856817 0.671413 10.266611 -0.706232 -0.436909 -9.366668 6.543082 -0.698097 3.943230 -1.123974 0.002565 -1.276675 0.000000 0.000000 0.000000 -7.607296 13.197445 -2.202035 -51.837863 -7.124760 2.140549 -7.999295 20.478080 0.092654 0.263453 -5.248365 0.046273 0.263851 -5.248739 0.000000 0.000000 0.000000 0.000000 0.000000 0.000000 0.000000 0.068169 -13.466377 2.584148 64.092506 10.920159 -0.434234 5.187289 16.787986 0.131809 -1.044025 8.331498 0.065660 -1.046259 8.331378 0.000000 0.000000 0.000000 0.000000 0.000000 0.000000 0.000000 
